<svg id="Calque_1" data-name="Calque 1" xmlns="http://www.w3.org/2000/svg" version="1.1" viewBox="0 0 64 64"><defs><style>.cls-1{opacity:.3;isolation:isolate}.cls-1,.cls-3{fill:#4e21e7;stroke-width:0}</style></defs><g id="Others"><rect id="Conteneur_Picto-18" data-name="Conteneur Picto-18" x="2" y="2" width="60" height="60" rx="5" ry="5" style="opacity:.1;fill:#4e21e7;stroke-width:0;isolation:isolate"/><path class="cls-1" d="M44.7 39.1c-1.3 0-2.3-4.6-2.3-5.9v-5.4c0-5.3-3.9-9.9-9-10.6v-1.7c0-.7-.6-1.4-1.4-1.4s-1.4.6-1.4 1.4v1.7c-5.1.7-9 5-9 10.3v5.8c0 1.3-1 5.9-2.3 5.9-1.4 0-2.5 1.1-2.5 2.5s1.1 2.5 2.5 2.5h25.4c1.4 0 2.5-1.1 2.5-2.5s-1.1-2.5-2.5-2.5ZM26.7 45.3C27 47.9 29.3 50 32 50s5-2 5.3-4.7H26.7Z"/><path class="cls-3" d="M46.9 30.5c-.7 0-1.3-.6-1.3-1.3V29c0-4.5-1.7-8.7-4.8-11.5-.5-.5-.6-1.4 0-1.9s1.4-.6 1.9 0c3.6 3.4 5.6 8.3 5.6 13.4v.3c0 .7-.6 1.4-1.4 1.4ZM17.1 30.5c-.7 0-1.3-.6-1.4-1.3v-.3c0-5.1 2-10 5.6-13.4.5-.5 1.4-.5 1.9 0s.5 1.4 0 1.9c-3 2.9-4.8 7-4.8 11.5v.3c0 .7-.6 1.4-1.3 1.4Z"/></g></svg>