<svg width="40" height="40" fill="none" xmlns="http://www.w3.org/2000/svg"><g clip-path="url(#a)"><path d="M36.667 0H3.333A3.333 3.333 0 0 0 0 3.333v33.334A3.333 3.333 0 0 0 3.333 40h33.334A3.333 3.333 0 0 0 40 36.667V3.333A3.333 3.333 0 0 0 36.667 0Z" fill="#F2EFFB"/><path d="M13.929 27.26a1.72 1.72 0 0 1-1.262-.526c-.35-.35-.525-.77-.524-1.26 0-.491.175-.912.525-1.262.35-.35.77-.525 1.26-.524.492 0 .912.175 1.262.525.35.35.525.77.524 1.26 0 .492-.175.912-.525 1.262-.35.35-.77.525-1.26.524Zm12.03 0c-.356 0-.665-.127-.926-.38a1.515 1.515 0 0 1-.457-.938 11.92 11.92 0 0 0-1.172-4.107 12.823 12.823 0 0 0-2.433-3.404c-.99-.99-2.124-1.8-3.404-2.431a11.972 11.972 0 0 0-4.107-1.173 1.5 1.5 0 0 1-.938-.47 1.349 1.349 0 0 1-.38-.96c0-.371.131-.68.392-.926.26-.246.57-.354.926-.323 1.83.149 3.549.61 5.156 1.384a15.43 15.43 0 0 1 4.253 3.002 15.426 15.426 0 0 1 3.002 4.252 14.486 14.486 0 0 1 1.384 5.156 1.14 1.14 0 0 1-.335.927c-.253.261-.573.391-.96.39Z" fill="#4E21E7"/><path d="M20.603 27.26c-.343 0-.651-.123-.926-.37a1.656 1.656 0 0 1-.525-.947 6.951 6.951 0 0 0-1.965-3.728 6.952 6.952 0 0 0-3.727-1.964 1.621 1.621 0 0 1-.948-.536 1.429 1.429 0 0 1-.37-.96c0-.387.135-.7.403-.937.268-.239.573-.335.915-.29 2.202.297 4.081 1.224 5.636 2.779 1.556 1.555 2.482 3.434 2.779 5.636.045.342-.06.647-.313.915a1.264 1.264 0 0 1-.96.402Z" fill="#CABCF8"/></g><defs><clipPath id="a"><path fill="#fff" d="M0 0h40v40H0z"/></clipPath></defs></svg>