<svg width="40" height="40" fill="none" xmlns="http://www.w3.org/2000/svg"><g clip-path="url(#a)"><path d="M36.667 0H3.333A3.333 3.333 0 0 0 0 3.333v33.334A3.333 3.333 0 0 0 3.333 40h33.334A3.333 3.333 0 0 0 40 36.667V3.333A3.333 3.333 0 0 0 36.667 0Z" fill="#F2EFFB"/><g clip-path="url(#b)"><path d="M20 24.803c2.58 0 4.672-2.102 4.672-4.695 0-2.593-2.092-4.695-4.672-4.695-2.58 0-4.672 2.102-4.672 4.695 0 2.593 2.092 4.695 4.672 4.695Z" fill="#4E21E7"/><path d="M20 14.497c.503 0 .911-.41.911-.916a.914.914 0 0 0-.911-.917.914.914 0 0 0-.912.917c0 .505.408.916.912.916ZM22.642 15.06c.503 0 .911-.41.911-.915a.914.914 0 0 0-.911-.916.914.914 0 0 0-.912.916c0 .506.408.916.912.916ZM24.827 16.656c.503 0 .911-.41.911-.916a.914.914 0 0 0-.911-.916.914.914 0 0 0-.912.916c0 .506.408.916.912.916ZM26.177 19.007c.504 0 .912-.41.912-.916a.914.914 0 0 0-.912-.916.914.914 0 0 0-.912.916c0 .506.409.916.912.916ZM26.46 21.707c.503 0 .91-.41.91-.916a.914.914 0 0 0-.91-.917.914.914 0 0 0-.912.917c0 .506.408.916.911.916ZM25.625 24.288c.503 0 .911-.41.911-.916a.914.914 0 0 0-.911-.916.914.914 0 0 0-.912.916c0 .506.408.916.912.916ZM23.817 26.305c.504 0 .912-.41.912-.916a.914.914 0 0 0-.912-.916.914.914 0 0 0-.911.916c0 .506.408.916.912.916ZM21.35 27.41c.504 0 .912-.41.912-.916a.914.914 0 0 0-.912-.917.914.914 0 0 0-.911.917c0 .506.408.916.911.916ZM17.358 15.06c.503 0 .912-.41.912-.915a.914.914 0 0 0-.912-.916.914.914 0 0 0-.912.916c0 .506.409.916.912.916ZM15.173 16.656c.504 0 .912-.41.912-.916a.914.914 0 0 0-.912-.916.914.914 0 0 0-.912.916c0 .506.409.916.912.916ZM13.823 19.007c.503 0 .911-.41.911-.916a.914.914 0 0 0-.911-.916.914.914 0 0 0-.912.916c0 .506.408.916.912.916ZM13.54 21.707c.504 0 .912-.41.912-.916a.914.914 0 0 0-.912-.917.914.914 0 0 0-.911.917c0 .506.408.916.911.916ZM14.375 24.288c.503 0 .912-.41.912-.916a.914.914 0 0 0-.912-.916.914.914 0 0 0-.912.916c0 .506.409.916.912.916ZM16.182 26.305c.504 0 .912-.41.912-.916a.914.914 0 0 0-.912-.916.914.914 0 0 0-.911.916c0 .506.408.916.911.916ZM18.65 27.41c.503 0 .911-.41.911-.916a.914.914 0 0 0-.911-.917.914.914 0 0 0-.912.917c0 .506.408.916.912.916Z" fill="#CABCF8"/><path d="M20 11.118c.503 0 .911-.41.911-.916A.914.914 0 0 0 20 9.286a.914.914 0 0 0-.912.916c0 .506.408.916.912.916ZM24.009 11.975c.503 0 .912-.41.912-.917a.914.914 0 0 0-.912-.916.914.914 0 0 0-.912.916c0 .506.409.917.912.917ZM27.325 14.396c.503 0 .912-.41.912-.916a.914.914 0 0 0-.912-.917.914.914 0 0 0-.912.917c0 .506.409.916.912.916ZM29.374 17.963c.504 0 .912-.41.912-.916a.914.914 0 0 0-.912-.916.914.914 0 0 0-.911.916c0 .506.408.916.911.916ZM29.803 22.06c.503 0 .911-.41.911-.916a.914.914 0 0 0-.911-.916.914.914 0 0 0-.912.916c0 .506.408.916.912.916ZM28.536 25.977c.503 0 .912-.41.912-.916a.914.914 0 0 0-.912-.916.914.914 0 0 0-.912.916c0 .506.409.916.912.916ZM25.794 29.039c.503 0 .911-.41.911-.917a.914.914 0 0 0-.911-.916.914.914 0 0 0-.912.916c0 .506.408.917.912.917ZM22.049 30.714c.503 0 .912-.41.912-.916a.914.914 0 0 0-.912-.916.914.914 0 0 0-.912.916c0 .506.409.916.912.916ZM15.991 11.975c.503 0 .912-.41.912-.917a.914.914 0 0 0-.912-.916.914.914 0 0 0-.912.916c0 .506.409.917.912.917ZM12.675 14.396c.503 0 .912-.41.912-.916a.914.914 0 0 0-.912-.917.914.914 0 0 0-.912.917c0 .506.409.916.912.916ZM10.626 17.963c.503 0 .911-.41.911-.916a.914.914 0 0 0-.911-.916.914.914 0 0 0-.912.916c0 .506.408.916.912.916ZM10.197 22.06c.504 0 .912-.41.912-.916a.914.914 0 0 0-.912-.916.914.914 0 0 0-.911.916c0 .506.408.916.911.916ZM11.464 25.977c.503 0 .912-.41.912-.916a.914.914 0 0 0-.912-.916.914.914 0 0 0-.912.916c0 .506.409.916.912.916ZM14.207 29.039c.503 0 .911-.41.911-.917a.914.914 0 0 0-.912-.916.914.914 0 0 0-.911.916c0 .506.408.917.912.917ZM17.95 30.714c.504 0 .912-.41.912-.916a.914.914 0 0 0-.911-.916.914.914 0 0 0-.912.916c0 .506.408.916.912.916Z" fill="#4E21E7"/></g></g><defs><clipPath id="a"><path fill="#fff" d="M0 0h40v40H0z"/></clipPath><clipPath id="b"><path fill="#fff" transform="translate(9.286 9.286)" d="M0 0h21.429v21.429H0z"/></clipPath></defs></svg>