<svg width="40" height="40" fill="none" xmlns="http://www.w3.org/2000/svg"><g clip-path="url(#a)"><path d="M36.667 0H3.333A3.333 3.333 0 0 0 0 3.333v33.334A3.333 3.333 0 0 0 3.333 40h33.334A3.333 3.333 0 0 0 40 36.667V3.333A3.333 3.333 0 0 0 36.667 0Z" fill="#F2EFFB"/><g clip-path="url(#b)" fill="#4E21E7"><path opacity=".3" d="M28.379 17.464h1.607a2.3 2.3 0 0 1 2.335 2.25 2.296 2.296 0 0 1-2.335 2.25h-1.607a2.3 2.3 0 0 1-2.336-2.25 2.296 2.296 0 0 1 2.336-2.25Z"/><path d="M19.414 25.143c-.3 0-.507-.1-.757-.35-.407-.407-.407-1.115 0-1.515l3.586-3.585-3.586-3.586c-.407-.407-.407-1.114 0-1.514.407-.4 1.114-.407 1.514 0l4.343 4.343c.407.407.407 1.114 0 1.514l-4.343 4.343c-.15.25-.457.35-.757.35Z"/><path opacity=".3" d="M10.193 17.464h6.071a2.3 2.3 0 0 1 2.336 2.25 2.296 2.296 0 0 1-2.336 2.25h-6.071a2.3 2.3 0 0 1-2.336-2.25 2.296 2.296 0 0 1 2.336-2.25Z"/></g></g><defs><clipPath id="a"><path fill="#fff" d="M0 0h40v40H0z"/></clipPath><clipPath id="b"><path fill="#fff" transform="translate(7.857 14.286)" d="M0 0h24.457v10.857H0z"/></clipPath></defs></svg>