<svg width="40" height="40" fill="none" xmlns="http://www.w3.org/2000/svg"><g clip-path="url(#a)"><path d="M36.667 0H3.333A3.333 3.333 0 0 0 0 3.333v33.334A3.333 3.333 0 0 0 3.333 40h33.334A3.333 3.333 0 0 0 40 36.667V3.333A3.333 3.333 0 0 0 36.667 0Z" fill="#F2EFFB"/><g clip-path="url(#b)"><path d="m19.464 24.059-4.296-4.626a.609.609 0 0 1 .056-.886c.008 0 .016-.015.024-.023a.746.746 0 0 1 .456-.15h2.56v-7.73c0-.364.312-.644.688-.644h2.088c.384 0 .696.28.704.643v7.738h2.552c.384 0 .696.28.704.643a.591.591 0 0 1-.168.416l-4.304 4.626a.748.748 0 0 1-1.008.06c-.024-.014-.04-.037-.064-.06l.008-.007Z" fill="#4E21E7"/></g><rect x="8.571" y="26.428" width="22.857" height="4.286" rx="2.143" fill="#CABCF8"/></g><defs><clipPath id="a"><path fill="#fff" d="M0 0h40v40H0z"/></clipPath><clipPath id="b"><path fill="#fff" transform="translate(15 10)" d="M0 0h10v14.286H0z"/></clipPath></defs></svg>