<svg width="40" height="40" fill="none" xmlns="http://www.w3.org/2000/svg"><g clip-path="url(#a)"><path d="M36.667 0H3.333A3.333 3.333 0 0 0 0 3.333v33.334A3.333 3.333 0 0 0 3.333 40h33.334A3.333 3.333 0 0 0 40 36.667V3.333A3.333 3.333 0 0 0 36.667 0Z" fill="#F2EFFB"/><rect x="7.857" y="12.143" width="5.926" height="4.444" rx="2" fill="#4E21E7"/><rect opacity=".3" x="15.264" y="12.143" width="16.296" height="4.444" rx="2" fill="#4E21E7"/><rect opacity=".3" x="7.857" y="23.995" width="23.704" height="4.444" rx="2" fill="#4E21E7"/><rect opacity=".3" x="7.857" y="18.069" width="11.111" height="4.444" rx="2" fill="#4E21E7"/><rect x="20.45" y="18.069" width="11.111" height="4.444" rx="2" fill="#4E21E7"/></g><defs><clipPath id="a"><path fill="#fff" d="M0 0h40v40H0z"/></clipPath></defs></svg>