<svg width="40" height="40" fill="none" xmlns="http://www.w3.org/2000/svg"><g clip-path="url(#a)"><path d="M36.667 0H3.333A3.333 3.333 0 0 0 0 3.333v33.334A3.333 3.333 0 0 0 3.333 40h33.334A3.333 3.333 0 0 0 40 36.667V3.333A3.333 3.333 0 0 0 36.667 0Z" fill="#F2EFFB"/><g clip-path="url(#b)" fill="#4E21E7"><path d="M20.159 15.183c1.296 0 2.481-.615 3.34-1.607-1.23-.452-2.503-.726-3.34-.726-.837 0-2.111.267-3.341.726.867.992 2.044 1.607 3.34 1.607Z"/><path opacity=".3" d="M17.64 26.583c.956.289 1.867.452 2.526.452.66 0 1.57-.163 2.526-.452a4.234 4.234 0 0 0-2.526-.852c-.926 0-1.793.319-2.526.852Z"/><path opacity=".3" d="M28.13 15.16v3.697c0 .26-.208.467-.468.467h-.4v-2.6c0-1.141-1.4-2.17-3.03-2.882h-.007c-1.007 1.26-2.452 2.052-4.052 2.06-1.6 0-3.044-.8-4.051-2.06h-.008c-1.63.711-3.03 1.741-3.03 2.882v2.6h-.4a.465.465 0 0 1-.466-.467v-3.696h-1.504v3.696a1.95 1.95 0 0 0 1.948 1.948h.4v2.311c0 1.304 1.823 2.46 3.734 3.163h.007c.933-.822 2.09-1.31 3.348-1.318 1.26 0 2.415.496 3.349 1.318h.007c1.911-.703 3.733-1.859 3.733-3.163v-2.31h.4a1.95 1.95 0 0 0 1.948-1.949v-3.696h-1.481.022Z"/><path d="M17.085 22.087a2.356 2.356 0 1 0 0-4.711 2.356 2.356 0 0 0 0 4.71ZM23.233 22.087a2.356 2.356 0 1 0 0-4.711 2.356 2.356 0 0 0 0 4.71Z"/></g></g><defs><clipPath id="a"><path fill="#fff" d="M0 0h40v40H0z"/></clipPath><clipPath id="b"><path fill="#fff" transform="translate(10.714 12.857)" d="M0 0h18.896v14.178H0z"/></clipPath></defs></svg>