<svg width="40" height="40" fill="none" xmlns="http://www.w3.org/2000/svg"><g clip-path="url(#a)"><path d="M36.667 0H3.333A3.333 3.333 0 0 0 0 3.333v33.334A3.333 3.333 0 0 0 3.333 40h33.334A3.333 3.333 0 0 0 40 36.667V3.333A3.333 3.333 0 0 0 36.667 0Z" fill="#F2EFFB"/><rect x="25.347" y="22.475" width="8.571" height="2.857" rx="1.429" transform="rotate(45 25.347 22.475)" fill="#4E21E7"/><g clip-path="url(#b)"><path d="m23.506 17.477-.543-.01-3.491-.006v1.173h2.855c-.24 1.452-1.21 2.341-2.893 2.341-1.77.021-3.223-1.366-3.245-3.096-.022-1.73 1.398-3.15 3.168-3.172a3.244 3.244 0 0 1 2.258.873l.86-.862a4.232 4.232 0 0 0-2.899-1.146h-.192c-2.416.005-4.379 1.923-4.384 4.285.005 2.363 1.968 4.28 4.384 4.286h.236c2.28 0 4.357-1.725 3.886-4.666Z" fill="#4E21E7"/></g><circle cx="19.224" cy="18.005" r="7.786" stroke="#CABCF8" stroke-width="3"/></g><defs><clipPath id="a"><path fill="#fff" d="M0 0h40v40H0z"/></clipPath><clipPath id="b"><path fill="#fff" transform="translate(15 13.572)" d="M0 0h8.571v8.571H0z"/></clipPath></defs></svg>