<svg width="40" height="40" fill="none" xmlns="http://www.w3.org/2000/svg"><g clip-path="url(#a)"><path d="M36.667 0H3.333A3.333 3.333 0 0 0 0 3.333v33.334A3.333 3.333 0 0 0 3.333 40h33.334A3.333 3.333 0 0 0 40 36.667V3.333A3.333 3.333 0 0 0 36.667 0Z" fill="#F2EFFB"/><rect x="25.603" y="16.833" width="1.481" height="6.667" rx=".741" transform="rotate(135 25.603 16.833)" fill="#CABCF8"/><rect x="15.333" y="17.881" width="1.481" height="6.667" rx=".741" transform="rotate(-135 15.333 17.88)" fill="#CABCF8"/><circle cx="19.809" cy="12.222" r="2.222" transform="rotate(180 19.809 12.222)" fill="#4E21E7"/><path d="M10 16.429h20c.775-.014 1.416.641 1.429 1.46v11.364c-.013.82-.654 1.475-1.43 1.461H10.001c-.776.014-1.417-.642-1.43-1.46V17.89c.013-.82.654-1.475 1.43-1.461Z" fill="#CABCF8"/><rect x="11.429" y="22.857" width="17.143" height="2.143" rx="1.071" fill="#4E21E7"/></g><defs><clipPath id="a"><path fill="#fff" d="M0 0h40v40H0z"/></clipPath></defs></svg>