<svg width="40" height="40" fill="none" xmlns="http://www.w3.org/2000/svg"><g clip-path="url(#a)"><path d="M36.667 0H3.333A3.333 3.333 0 0 0 0 3.333v33.334A3.333 3.333 0 0 0 3.333 40h33.334A3.333 3.333 0 0 0 40 36.667V3.333A3.333 3.333 0 0 0 36.667 0Z" fill="#F2EFFB"/><rect x="8.571" y="11.428" width="22.857" height="17.143" rx="2" fill="#CABCF8"/><g clip-path="url(#b)"><path d="m19.934 19.62-.542-.011-3.491-.005v1.173h2.855c-.241 1.452-1.211 2.34-2.894 2.34-1.77.022-3.222-1.365-3.244-3.096-.022-1.73 1.397-3.15 3.168-3.17a3.245 3.245 0 0 1 2.258.872l.86-.862a4.233 4.233 0 0 0-2.9-1.147h-.191c-2.417.006-4.379 1.924-4.384 4.286.005 2.363 1.967 4.28 4.384 4.286h.236c2.28 0 4.357-1.725 3.885-4.666Z" fill="#4E21E7"/></g><rect x="22.143" y="17.143" width="5" height="1.429" rx=".714" fill="#4E21E7"/><rect x="22.143" y="19.286" width="6.429" height="1.429" rx=".714" fill="#4E21E7"/><rect x="22.143" y="21.428" width="5" height="1.429" rx=".714" fill="#4E21E7"/></g><defs><clipPath id="a"><path fill="#fff" d="M0 0h40v40H0z"/></clipPath><clipPath id="b"><path fill="#fff" transform="translate(11.429 15.714)" d="M0 0h8.571v8.571H0z"/></clipPath></defs></svg>