<svg width="40" height="40" fill="none" xmlns="http://www.w3.org/2000/svg"><g clip-path="url(#a)"><path d="M36.667 0H3.333A3.333 3.333 0 0 0 0 3.333v33.334A3.333 3.333 0 0 0 3.333 40h33.334A3.333 3.333 0 0 0 40 36.667V3.333A3.333 3.333 0 0 0 36.667 0Z" fill="#F2EFFB"/><path d="M27.786 21.428a7.786 7.786 0 1 1-15.572 0 7.786 7.786 0 0 1 15.572 0Z" stroke="#CABCF8" stroke-width="3"/><g clip-path="url(#b)"><path d="m24.22 21.048-.543-.01-3.49-.006v1.173h2.855c-.242 1.452-1.212 2.341-2.894 2.341-1.77.022-3.223-1.366-3.244-3.096-.022-1.73 1.397-3.15 3.167-3.171a3.244 3.244 0 0 1 2.258.873l.86-.863a4.232 4.232 0 0 0-2.898-1.146h-.192c-2.417.005-4.38 1.923-4.385 4.285.006 2.363 1.968 4.28 4.385 4.286h.235c2.28 0 4.357-1.725 3.886-4.666Z" fill="#4E21E7"/></g><rect x="12.857" y="8.572" width="14.286" height="2.857" rx="1.429" fill="#4E21E7"/></g><defs><clipPath id="a"><path fill="#fff" d="M0 0h40v40H0z"/></clipPath><clipPath id="b"><path fill="#fff" transform="translate(15.714 17.143)" d="M0 0h8.571v8.571H0z"/></clipPath></defs></svg>