<svg width="40" height="40" fill="none" xmlns="http://www.w3.org/2000/svg"><g clip-path="url(#a)"><path d="M36.667 0H3.333A3.333 3.333 0 0 0 0 3.333v33.334A3.333 3.333 0 0 0 3.333 40h33.334A3.333 3.333 0 0 0 40 36.667V3.333A3.333 3.333 0 0 0 36.667 0Z" fill="#F2EFFB"/><rect x="26.429" y="16.428" width="5.714" height="2.857" rx="1.429" fill="#CABCF8"/><rect x="26.429" y="20.714" width="5.714" height="2.857" rx="1.429" fill="#4E21E7"/><rect x="13.571" y="23.572" width="5.714" height="2.857" rx="1.429" transform="rotate(180 13.571 23.572)" fill="#CABCF8"/><rect x="13.571" y="19.286" width="5.714" height="2.857" rx="1.429" transform="rotate(180 13.571 19.286)" fill="#4E21E7"/><rect x="23.571" y="26.428" width="5.714" height="2.857" rx="1.429" transform="rotate(90 23.571 26.428)" fill="#CABCF8"/><rect x="19.286" y="26.428" width="5.714" height="2.857" rx="1.429" transform="rotate(90 19.286 26.428)" fill="#4E21E7"/><rect x="16.429" y="13.572" width="5.714" height="2.857" rx="1.429" transform="rotate(-90 16.429 13.572)" fill="#CABCF8"/><rect x="20.714" y="13.572" width="5.714" height="2.857" rx="1.429" transform="rotate(-90 20.714 13.572)" fill="#4E21E7"/><mask id="b" fill="#fff"><rect x="11.429" y="11.428" width="17.143" height="17.143" rx="2"/></mask><rect x="11.429" y="11.428" width="17.143" height="17.143" rx="2" stroke="#CABCF8" stroke-width="6" mask="url(#b)"/></g><defs><clipPath id="a"><path fill="#fff" d="M0 0h40v40H0z"/></clipPath></defs></svg>