<svg width="40" height="40" fill="none" xmlns="http://www.w3.org/2000/svg"><g clip-path="url(#a)"><path d="M36.667 0H3.333A3.333 3.333 0 0 0 0 3.333v33.334A3.333 3.333 0 0 0 3.333 40h33.334A3.333 3.333 0 0 0 40 36.667V3.333A3.333 3.333 0 0 0 36.667 0Z" fill="#F2EFFB"/><g clip-path="url(#b)" fill="#4E21E7"><path opacity=".3" d="M12.143 14.614h15.9c.786 0 1.428.643 1.428 1.429v12.15c0 .785-.642 1.428-1.428 1.428h-15.9a1.433 1.433 0 0 1-1.429-1.428v-12.15c0-.786.643-1.429 1.429-1.429Z"/><path d="M24.943 16.664a1.07 1.07 0 0 1-1.072-1.071 3.515 3.515 0 0 0-7.029 0 1.07 1.07 0 0 1-1.07 1.071 1.07 1.07 0 0 1-1.072-1.071c.029-3.121 2.593-5.629 5.721-5.593a5.653 5.653 0 0 1 5.593 5.593 1.07 1.07 0 0 1-1.071 1.071Z"/></g></g><defs><clipPath id="a"><path fill="#fff" d="M0 0h40v40H0z"/></clipPath><clipPath id="b"><path fill="#fff" transform="translate(10.714 10)" d="M0 0h18.757v19.621H0z"/></clipPath></defs></svg>