<svg id="Calque_1" data-name="Calque 1" xmlns="http://www.w3.org/2000/svg" version="1.1" viewBox="0 0 40 40"><defs><clipPath id="clippath"><path class="cls-2" d="M0 0h40v40H0z"/></clipPath><clipPath id="clippath-1"><path class="cls-2" d="M8.4 8.4h23.2v23.2H8.4z"/></clipPath><style>.cls-2{fill:none;stroke-width:0}</style></defs><g style="clip-path:url(#clippath)"><path d="M36.7 0H3.3C1.5 0 0 1.5 0 3.3v33.3c0 1.8 1.5 3.3 3.3 3.3h33.3c1.8 0 3.3-1.5 3.3-3.3V3.3C40 1.5 38.5 0 36.7 0Z" style="fill:#f2effb;stroke-width:0"/><g style="clip-path:url(#clippath-1)"><path d="M31.6 14.5c0-1.6-.6-3.2-1.8-4.3-1.1-1.1-2.7-1.8-4.3-1.8-1.6 0-3.2.6-4.3 1.8l-3.5 3.5c1.3-.2 2.7-.1 4 .3l1.7-1.7c.6-.6 1.3-.9 2.1-.9s1.6.3 2.1.9c.6.6.9 1.3.9 2.1s-.3 1.6-.9 2.1L23 21.1c-.3.3-.7.6-1.2.7-.5.2-1 .2-1.5.1-.6-.1-1.2-.4-1.6-.8-.4-.4-.7-1-.8-1.6l-.1.1-2.3 2.3c.6 1 1.4 1.9 2.5 2.5.9.5 1.9.7 2.9.7 1.6 0 3.2-.6 4.3-1.8l4.6-4.6c1.1-1.1 1.8-2.7 1.8-4.3Z" style="fill:#4e21e7;stroke-width:0"/><path d="m18.3 26-1.7 1.7c-.6.6-1.3.9-2.1.9s-1.6-.3-2.1-.9c-.6-.6-.9-1.3-.9-2.1s.3-1.6.9-2.1l4.6-4.6c.3-.3.7-.6 1.2-.7.5-.2 1-.2 1.5-.1.6.1 1.2.4 1.6.8.4.4.7 1 .8 1.6l.1-.1 2.3-2.3c-.6-1-1.4-1.9-2.5-2.5-.9-.5-1.9-.7-2.9-.7-1.6 0-3.2.6-4.3 1.8l-4.6 4.6c-1.1 1.2-1.8 2.7-1.8 4.3 0 1.6.6 3.2 1.8 4.3 1.1 1.1 2.7 1.8 4.3 1.8s3.2-.6 4.3-1.8l3.5-3.5c-1.3.2-2.7.1-4-.3Z" style="fill:#4e21e7;isolation:isolate;opacity:.3;stroke-width:0"/></g></g></svg>