<svg width="40" height="40" fill="none" xmlns="http://www.w3.org/2000/svg"><g clip-path="url(#a)"><path d="M36.667 0H3.333A3.333 3.333 0 0 0 0 3.333v33.334A3.333 3.333 0 0 0 3.333 40h33.334A3.333 3.333 0 0 0 40 36.667V3.333A3.333 3.333 0 0 0 36.667 0Z" fill="#F2EFFB"/><path d="M27.192 12.666a5.596 5.596 0 0 0-3.78-1.231 5.577 5.577 0 0 0-3.643 1.582l-.83.805a.336.336 0 0 0-.103.238v5.347l4.752-4.668a.698.698 0 0 1 .965.012.673.673 0 0 1 .013.948l-3.94 3.878h7.636a.351.351 0 0 0 .308-.184 5.353 5.353 0 0 0 .527-3.604 5.422 5.422 0 0 0-1.905-3.123Z" fill="#4E21E7"/><path opacity=".3" d="m26.149 21.364-4.894 4.879a1.29 1.29 0 0 1-.917.378h-5.363l-2.428 2.396a.655.655 0 0 1-.463.19.663.663 0 0 1-.606-.4.639.639 0 0 1 .143-.703l1.848-1.822 5.548-5.468h6.9a.331.331 0 0 1 .301.199.319.319 0 0 1-.069.35ZM13.952 23.98l3.37-3.323v-4.462a.32.32 0 0 0-.201-.297.331.331 0 0 0-.356.068l-2.988 2.912a1.28 1.28 0 0 0-.384.912v3.961a.32.32 0 0 0 .202.299.333.333 0 0 0 .357-.07Z" fill="#4E21E7"/></g><defs><clipPath id="a"><path fill="#fff" d="M0 0h40v40H0z"/></clipPath></defs></svg>