<svg width="40" height="40" fill="none" xmlns="http://www.w3.org/2000/svg"><g clip-path="url(#a)"><path d="M36.667 0H3.333A3.333 3.333 0 0 0 0 3.333v33.334A3.333 3.333 0 0 0 3.333 40h33.334A3.333 3.333 0 0 0 40 36.667V3.333A3.333 3.333 0 0 0 36.667 0Z" fill="#F2EFFB"/><g clip-path="url(#b)"><path d="M11.057 25.143c-.3 0-.507-.1-.757-.35-.407-.407-.407-1.114 0-1.514l3.586-3.586-3.586-3.586c-.4-.407-.4-1.114 0-1.521.4-.407 1.114-.4 1.521 0l4.343 4.343c.407.407.407 1.114 0 1.514l-4.343 4.343c-.15.25-.457.35-.757.35l-.007.007Z" fill="#4E21E7"/></g><g clip-path="url(#c)"><path d="M17.521 25.143c-.3 0-.507-.1-.757-.35-.407-.407-.407-1.114 0-1.514l3.586-3.586-3.586-3.586c-.4-.407-.4-1.114 0-1.521.4-.407 1.115-.4 1.522 0l4.343 4.343c.407.407.407 1.114 0 1.514l-4.343 4.343c-.15.25-.457.35-.757.35l-.008.007Z" fill="#CABCF8"/></g><g clip-path="url(#d)"><path d="M23.986 25.143c-.3 0-.507-.1-.757-.35-.408-.407-.408-1.114 0-1.514l3.585-3.586-3.585-3.586c-.4-.407-.4-1.114 0-1.521.4-.407 1.114-.4 1.521 0l4.343 4.343c.407.407.407 1.114 0 1.514l-4.343 4.343c-.15.25-.457.35-.757.35l-.007.007Z" fill="#4E21E7"/></g></g><defs><clipPath id="a"><path fill="#fff" d="M0 0h40v40H0z"/></clipPath><clipPath id="b"><path fill="#fff" transform="translate(10 14.286)" d="M0 0h6.464v10.857H0z"/></clipPath><clipPath id="c"><path fill="#fff" transform="translate(16.464 14.286)" d="M0 0h6.464v10.857H0z"/></clipPath><clipPath id="d"><path fill="#fff" transform="translate(22.929 14.286)" d="M0 0h6.464v10.857H0z"/></clipPath></defs></svg>