<svg width="40" height="40" fill="none" xmlns="http://www.w3.org/2000/svg"><g clip-path="url(#a)"><path d="M36.667 0H3.333A3.333 3.333 0 0 0 0 3.333v33.334A3.333 3.333 0 0 0 3.333 40h33.334A3.333 3.333 0 0 0 40 36.667V3.333A3.333 3.333 0 0 0 36.667 0Z" fill="#F2EFFB"/><g clip-path="url(#b)"><path d="m22.087 18.328 1.953 1.986 3.11-3.16-1.953-1.986 1.024-1.04-1.259-1.279L19 18.91a3.958 3.958 0 0 0-4.963.563 4.11 4.11 0 0 0 0 5.75 3.955 3.955 0 0 0 5.658 0c1.344-1.366 1.532-3.47.555-5.043l1.837-1.866v.015Zm-3.853 2.637c.758.77.758 2.017 0 2.787s-1.985.77-2.743 0a1.992 1.992 0 0 1 0-2.787 1.917 1.917 0 0 1 2.743 0Z" fill="#4E21E7"/></g></g><defs><clipPath id="a"><path fill="#fff" d="M0 0h40v40H0z"/></clipPath><clipPath id="b"><path fill="#fff" transform="translate(12.857 12.857)" d="M0 0h14.286v13.571H0z"/></clipPath></defs></svg>