<?xml version="1.0" encoding="UTF-8"?>
<svg id="Calque_1" data-name="Calque 1" xmlns="http://www.w3.org/2000/svg" viewBox="0 0 1124.22 302.32">
  <path d="M119.6,0C53.82,0,0,53.82,0,119.6s53.82,119.6,119.6,119.6,119.6-53.49,119.6-119.6S185.71,0,119.6,0ZM119.6,196.34c-40.86,0-73.75-33.55-73.75-76.74S78.74,42.86,119.6,42.86s73.75,33.55,73.75,76.74-32.89,76.74-73.75,76.74Z"/>
  <path d="M360.13,66.44c-21.59,0-42.52,8.64-53.49,23.26v-19.93h-43.19v232.56h43.19v-84.05c10.96,13.62,31.23,20.93,53.49,20.93,46.51,0,83.06-36.55,83.06-86.38s-36.55-86.38-83.06-86.38ZM352.82,201.66c-24.58,0-46.51-19.27-46.51-48.84s21.93-48.84,46.51-48.84,46.51,19.27,46.51,48.84-21.93,48.84-46.51,48.84Z"/>
  <path d="M544.85,66.44c-47.18,0-84.38,36.88-84.38,86.38s32.56,86.38,85.71,86.38c43.52,0,71.43-26.25,80.07-55.81h-42.19c-5.32,12.29-20.27,20.93-38.21,20.93-22.26,0-39.2-15.61-43.19-37.87h125.58v-16.94c0-45.18-31.56-83.06-83.39-83.06ZM502.99,135.88c4.65-20.93,21.93-34.55,42.86-34.55,22.26,0,39.2,14.62,41.2,34.55h-84.05Z"/>
  <path d="M743.18,66.44c-19.27,0-39.54,8.64-48.84,22.92v-19.6h-43.19v166.11h43.19v-89.37c0-25.91,13.95-42.86,36.54-42.86,20.93,0,32.22,15.95,32.22,38.21v94.02h43.19v-100.99c0-41.2-25.25-68.44-63.12-68.44Z"/>
  <path d="M916.92,3.33l-94.02,232.56h46.18l19.93-50.83h106.98l19.93,50.83h46.84L969.41,3.33h-52.49ZM903.96,146.52l38.54-97.34,38.2,97.34h-76.74Z"/>
  <path d="M1124.22,3.33h-43.85v232.56h43.85V3.33Z"/>
</svg>